<svg xmlns="http://www.w3.org/2000/svg" id="gegaedha" class="css-g5ufxp" preserveAspectRatio="xMidYMid meet" viewBox="0 0 221.369 81"><defs id="SvgjsDefs4431"><linearGradient id="SvgjsLinearGradient4436"><stop id="SvgjsStop4437" offset="0" stop-color="#ef4136"/><stop id="SvgjsStop4438" offset="1" stop-color="#fbb040"/></linearGradient></defs><g id="SvgjsG1007" fill="url(#SvgjsLinearGradient4436)" featurekey="0LeO0L-0" transform="matrix(5.788111925712331,0,0,5.788111925712331,2.995522049125994,-34.763011310562376)"><path d="M4.5117 6.006 c1.7383 0 2.8776 0.60871 3.418 1.8262 c0.3125 0.59245 0.46875 1.7317 0.46875 3.418 l0 0.058594 l-0.88867 0 l0 0.40039 l0.88867 0 l0 4.3652 l-0.58594 0 l0 1.582 l-1.1719 0 l0 1.5332 l0.50781 0 l0 0.81055 l-2.2461 0 l0 -0.88867 l-1.4746 0 l0 -1.4551 l-1.6406 0 l0 -1.582 l-0.81055 0 l0 -1.2305 l0.625 0 l0 -0.64453 l-0.625 0 l0 0.64453 l-1.4941 0 l0 -0.64453 l1.1328 0 c-0.013018 -0.98311 -0.019531 -1.7383 -0.019531 -2.2656 l0 -1.0352 c0 -1.9075 0.32227 -3.1868 0.9668 -3.8379 c0.59896 -0.70313 1.582 -1.0547 2.9492 -1.0547 z M3.0371 10.1758 l0.01955 -0.0000095367 l-0.019531 0.039063 l0 1.0938 l-0.9082 0 l0 0.40039 l0.9082 0 c-0.013018 1.7448 -0.019531 3.0599 -0.019531 3.9453 l0 0.41992 l0.9082 0 l0 -0.66406 l2.0508 0 l0 -0.019531 c0 -0.82031 -0.0097656 -1.9661 -0.029297 -3.4375 c0 -0.058594 0.0097656 -0.21484 0.029297 -0.46875 c0 -1.5886 -0.094404 -2.5651 -0.2832 -2.9297 c-0.19531 -0.35156 -0.54688 -0.52734 -1.0547 -0.52734 l-0.30273 0 c-0.61198 0 -0.98955 0.27019 -1.1328 0.81055 c-0.065107 0.26692 -0.12045 0.71289 -0.16603 1.3379 z M8.3984 11.3086 l1.4551 0 l0 0.40039 l-1.4551 0 l0 -0.40039 z M8.5156 11.7969 l0.2832 0 c0.026045 0 0.039063 0.013018 0.039063 0.039063 l0 0.058594 l-0.21484 0 l0 0.078125 l0.13672 0 c0.026045 0.0065136 0.039063 0.019531 0.039063 0.039063 l0 0.058594 l-0.17578 0 l0 0.18555 l-0.10742 0 l0 -0.45898 z M8.5156 12.4023 l0.16603 -0.0000095367 c0.10417 0 0.17253 0.032549 0.20508 0.097656 l0 0.078125 l-0.048828 0.058594 c0.032549 0.045576 0.055332 0.12045 0.06835 0.22462 l-0.087891 0 c-0.013018 0 -0.039063 -0.05208 -0.078125 -0.15625 c-0.019531 -0.013018 -0.045576 -0.019531 -0.078125 -0.019531 l-0.039063 0 l0 0.17578 l-0.10742 0 l0 -0.45898 z M8.623 12.5 l0 0.097656 l0.11719 0 c0.026045 0 0.039063 -0.013018 0.039063 -0.039063 l0 -0.019531 c0 -0.026045 -0.013018 -0.039063 -0.039063 -0.039063 l-0.11719 0 z M8.6621 13.0078 l0.078135 0 l0.16602 0.45898 l-0.087891 0 c-0.026045 0 -0.045576 -0.032549 -0.058594 -0.097656 l-0.15625 0 l-0.019531 0.097656 l-0.10742 0 l0 -0.019531 c0.091143 -0.29297 0.15299 -0.43945 0.18554 -0.43945 z M8.6426 13.291 l0.078125 0 l0 -0.019531 l-0.019531 -0.10742 c-0.026045 0 -0.045576 0.042314 -0.058594 0.12695 z M5.6641 14.238299999999999 c0.091143 0.026045 0.14648 0.065098 0.16602 0.11718 l0 0.048828 l-0.078125 0 l-0.087891 -0.068359 l-0.039063 0 c-0.026045 0.0065136 -0.039063 0.019531 -0.039063 0.039063 s0.074873 0.055342 0.22461 0.10742 c0.026045 0.045576 0.039063 0.078125 0.039063 0.097656 c-0.032549 0.097656 -0.10091 0.14648 -0.20508 0.14648 c-0.065107 0 -0.1237 -0.042314 -0.17578 -0.12695 l0 -0.058594 l0.097656 0 c0.0065136 0.05208 0.026045 0.078125 0.058594 0.078125 l0.10742 0 l0 -0.039063 c0 -0.013018 -0.074873 -0.05208 -0.22461 -0.11719 c-0.013018 -0.026045 -0.019531 -0.055342 -0.019531 -0.087891 l0 -0.039063 c0 -0.032549 0.058594 -0.065098 0.17578 -0.097646 z M5.7129 14.8437 c0.11719 0 0.1823 0.081377 0.19532 0.24414 l0 0.039063 l-0.039063 0.14648 c0.026045 0 0.039063 0.013018 0.039063 0.039063 c-0.026045 0 -0.039063 0.013018 -0.039063 0.039063 l-0.078125 -0.039063 l-0.097656 0.019531 c-0.14974 -0.026045 -0.22461 -0.10742 -0.22461 -0.24414 c0.032549 -0.16276 0.11393 -0.24414 0.24413 -0.24414 z M5.5859 15.087900000000001 c0 0.071611 0.026045 0.11719 0.078125 0.13672 l0.048828 0 l-0.019531 -0.039063 c0 -0.026045 0.013018 -0.039063 0.039063 -0.039063 l0.019531 0 l0.039063 0.019531 c0 -0.013018 0.0065136 -0.032549 0.019531 -0.058594 c0 -0.097656 -0.039063 -0.153 -0.11719 -0.16602 c-0.071611 0.019531 -0.10742 0.068359 -0.10742 0.14648 z"/></g><g id="SvgjsG1008" fill="#fff" featurekey="pulpyG-0"><path d="M13 14.36 q-0.12 -0.12 -0.17 -0.29 t-0.01 -0.33 q0.1 -0.64 0.1 -1.14 q0 -2.06 -1.22 -3.36 q-1.28 -1.34 -3.38 -1.34 t-3.38 1.34 q-1.22 1.3 -1.22 3.36 t1.22 3.36 q1.28 1.34 3.38 1.34 q0.84 0 1.5 -0.2 l-1.14 -1.14 q-0.2 -0.24 -0.2 -0.5 t0.2 -0.5 l1.08 -1.08 q0.22 -0.22 0.51 -0.22 t0.49 0.22 l4.34 4.34 q0.22 0.2 0.22 0.49 t-0.22 0.51 l-1.08 1.08 q-0.18 0.2 -0.49 0.2 t-0.51 -0.2 l-0.98 -1 q-1.64 0.9 -3.72 0.9 q-3.32 0 -5.46 -2.22 q-2.08 -2.18 -2.08 -5.38 t2.08 -5.38 q2.16 -2.22 5.47 -2.22 t5.45 2.24 q2.08 2.14 2.08 5.36 q0 1.42 -0.46 2.74 q-0.06 0.18 -0.19 0.3 t-0.31 0.14 q-0.38 0.1 -0.66 -0.18 z M30.32 5 q0.28 0 0.49 0.21 t0.21 0.49 l0 13.4 q0 0.28 -0.21 0.49 t-0.49 0.21 l-1.76 0 q-0.36 0 -0.58 -0.28 l-9.78 -13.4 q-0.12 -0.16 -0.14 -0.36 t0.07 -0.38 t0.26 -0.28 t0.37 -0.1 l1.76 0 q0.16 0 0.32 0.07 t0.24 0.21 l7.02 9.54 l0 -9.12 q0 -0.28 0.2 -0.49 t0.5 -0.21 l1.52 0 z M20.28 14.7 q0.28 0 0.49 0.2 t0.21 0.5 l0 3.7 q0 0.28 -0.21 0.49 t-0.49 0.21 l-1.52 0 q-0.28 0 -0.49 -0.21 t-0.21 -0.49 l0 -3.7 q0 -0.3 0.21 -0.5 t0.49 -0.2 l1.52 0 z M43.74 14.1 l3.02 4.62 q0.22 0.36 0.02 0.72 q-0.08 0.16 -0.25 0.26 t-0.35 0.1 l-1.82 0 q-0.18 0 -0.34 -0.09 t-0.24 -0.23 l-3.04 -4.82 l-3.56 0 l0 4.44 q0 0.28 -0.21 0.49 t-0.49 0.21 l-1.52 0 q-0.28 0 -0.49 -0.21 t-0.21 -0.49 l0 -6.58 q0 -0.28 0.21 -0.49 t0.49 -0.21 l6.16 0 q1.76 0 2.34 -1 q0.2 -0.32 0.2 -0.92 q0 -0.94 -0.62 -1.48 q-0.64 -0.58 -1.84 -0.58 l-6.24 0 q-0.28 0 -0.49 -0.21 t-0.21 -0.49 l0 -1.44 q0 -0.28 0.21 -0.49 t0.49 -0.21 l6.42 0 q2.34 0 3.74 1.32 q1.46 1.32 1.46 3.58 q0 1.46 -0.64 2.49 t-1.86 1.57 z" transform="matrix(2.9584231732743382,0,0,2.9584231732743382,82.69243353620243,3.2078940084309995)"/></g></svg>