<?xml version="1.0" encoding="utf-8"?>
<!-- Generator: Adobe Illustrator 22.1.0, SVG Export Plug-In . SVG Version: 6.00 Build 0)  -->
<svg version="1.1" id="Layer_1" xmlns="http://www.w3.org/2000/svg" xmlns:xlink="http://www.w3.org/1999/xlink" x="0px" y="0px"
	 viewBox="0 0 70.9 70.9" style="enable-background:new 0 0 70.9 70.9;" xml:space="preserve">
<defs xmlns="http://www.w3.org/2000/svg" id="SvgjsDefs4431"><linearGradient id="SvgjsLinearGradient4436"><stop id="SvgjsStop4437" stop-color="#ef4136" offset="0"/><stop id="SvgjsStop4438" stop-color="#fbb040" offset="1"/></linearGradient></defs>
<g xmlns="http://www.w3.org/2000/svg" id="SvgjsG1007" featurekey="0LeO0L-0" transform="matrix(5.788111925712331,0,0,5.788111925712331,2.995522049125994,-34.763011310562376)" fill="url(#SvgjsLinearGradient4436)"><path d="M4.5117 6.006 c1.7383 0 2.8776 0.60871 3.418 1.8262 c0.3125 0.59245 0.46875 1.7317 0.46875 3.418 l0 0.058594 l-0.88867 0 l0 0.40039 l0.88867 0 l0 4.3652 l-0.58594 0 l0 1.582 l-1.1719 0 l0 1.5332 l0.50781 0 l0 0.81055 l-2.2461 0 l0 -0.88867 l-1.4746 0 l0 -1.4551 l-1.6406 0 l0 -1.582 l-0.81055 0 l0 -1.2305 l0.625 0 l0 -0.64453 l-0.625 0 l0 0.64453 l-1.4941 0 l0 -0.64453 l1.1328 0 c-0.013018 -0.98311 -0.019531 -1.7383 -0.019531 -2.2656 l0 -1.0352 c0 -1.9075 0.32227 -3.1868 0.9668 -3.8379 c0.59896 -0.70313 1.582 -1.0547 2.9492 -1.0547 z M3.0371 10.1758 l0.01955 -0.0000095367 l-0.019531 0.039063 l0 1.0938 l-0.9082 0 l0 0.40039 l0.9082 0 c-0.013018 1.7448 -0.019531 3.0599 -0.019531 3.9453 l0 0.41992 l0.9082 0 l0 -0.66406 l2.0508 0 l0 -0.019531 c0 -0.82031 -0.0097656 -1.9661 -0.029297 -3.4375 c0 -0.058594 0.0097656 -0.21484 0.029297 -0.46875 c0 -1.5886 -0.094404 -2.5651 -0.2832 -2.9297 c-0.19531 -0.35156 -0.54688 -0.52734 -1.0547 -0.52734 l-0.30273 0 c-0.61198 0 -0.98955 0.27019 -1.1328 0.81055 c-0.065107 0.26692 -0.12045 0.71289 -0.16603 1.3379 z M8.3984 11.3086 l1.4551 0 l0 0.40039 l-1.4551 0 l0 -0.40039 z M8.5156 11.7969 l0.2832 0 c0.026045 0 0.039063 0.013018 0.039063 0.039063 l0 0.058594 l-0.21484 0 l0 0.078125 l0.13672 0 c0.026045 0.0065136 0.039063 0.019531 0.039063 0.039063 l0 0.058594 l-0.17578 0 l0 0.18555 l-0.10742 0 l0 -0.45898 z M8.5156 12.4023 l0.16603 -0.0000095367 c0.10417 0 0.17253 0.032549 0.20508 0.097656 l0 0.078125 l-0.048828 0.058594 c0.032549 0.045576 0.055332 0.12045 0.06835 0.22462 l-0.087891 0 c-0.013018 0 -0.039063 -0.05208 -0.078125 -0.15625 c-0.019531 -0.013018 -0.045576 -0.019531 -0.078125 -0.019531 l-0.039063 0 l0 0.17578 l-0.10742 0 l0 -0.45898 z M8.623 12.5 l0 0.097656 l0.11719 0 c0.026045 0 0.039063 -0.013018 0.039063 -0.039063 l0 -0.019531 c0 -0.026045 -0.013018 -0.039063 -0.039063 -0.039063 l-0.11719 0 z M8.6621 13.0078 l0.078135 0 l0.16602 0.45898 l-0.087891 0 c-0.026045 0 -0.045576 -0.032549 -0.058594 -0.097656 l-0.15625 0 l-0.019531 0.097656 l-0.10742 0 l0 -0.019531 c0.091143 -0.29297 0.15299 -0.43945 0.18554 -0.43945 z M8.6426 13.291 l0.078125 0 l0 -0.019531 l-0.019531 -0.10742 c-0.026045 0 -0.045576 0.042314 -0.058594 0.12695 z M5.6641 14.238299999999999 c0.091143 0.026045 0.14648 0.065098 0.16602 0.11718 l0 0.048828 l-0.078125 0 l-0.087891 -0.068359 l-0.039063 0 c-0.026045 0.0065136 -0.039063 0.019531 -0.039063 0.039063 s0.074873 0.055342 0.22461 0.10742 c0.026045 0.045576 0.039063 0.078125 0.039063 0.097656 c-0.032549 0.097656 -0.10091 0.14648 -0.20508 0.14648 c-0.065107 0 -0.1237 -0.042314 -0.17578 -0.12695 l0 -0.058594 l0.097656 0 c0.0065136 0.05208 0.026045 0.078125 0.058594 0.078125 l0.10742 0 l0 -0.039063 c0 -0.013018 -0.074873 -0.05208 -0.22461 -0.11719 c-0.013018 -0.026045 -0.019531 -0.055342 -0.019531 -0.087891 l0 -0.039063 c0 -0.032549 0.058594 -0.065098 0.17578 -0.097646 z M5.7129 14.8437 c0.11719 0 0.1823 0.081377 0.19532 0.24414 l0 0.039063 l-0.039063 0.14648 c0.026045 0 0.039063 0.013018 0.039063 0.039063 c-0.026045 0 -0.039063 0.013018 -0.039063 0.039063 l-0.078125 -0.039063 l-0.097656 0.019531 c-0.14974 -0.026045 -0.22461 -0.10742 -0.22461 -0.24414 c0.032549 -0.16276 0.11393 -0.24414 0.24413 -0.24414 z M5.5859 15.087900000000001 c0 0.071611 0.026045 0.11719 0.078125 0.13672 l0.048828 0 l-0.019531 -0.039063 c0 -0.026045 0.013018 -0.039063 0.039063 -0.039063 l0.019531 0 l0.039063 0.019531 c0 -0.013018 0.0065136 -0.032549 0.019531 -0.058594 c0 -0.097656 -0.039063 -0.153 -0.11719 -0.16602 c-0.071611 0.019531 -0.10742 0.068359 -0.10742 0.14648 z"/></g>
</svg>
